<mxfile host="app.diagrams.net" modified="2024-02-20T18:27:03.032Z" agent="Mozilla/5.0 (Windows NT 10.0; Win64; x64) AppleWebKit/537.36 (KHTML, like Gecko) Chrome/121.0.0.0 Safari/537.36 Edg/121.0.0.0" etag="2pjMmDJdXydH-DsC3oI8" version="23.1.5" type="github">
  <diagram name="Page-1" id="D-2gOVy6844muy7Wv8O4">
    <mxGraphModel dx="786" dy="472" grid="1" gridSize="10" guides="1" tooltips="1" connect="1" arrows="1" fold="1" page="1" pageScale="1" pageWidth="850" pageHeight="1100" math="0" shadow="0">
      <root>
        <mxCell id="0" />
        <mxCell id="1" parent="0" />
        <mxCell id="Ze1LnigZaSHVCxJpz0-y-13" value="User" style="swimlane;childLayout=stackLayout;horizontal=1;startSize=50;horizontalStack=0;rounded=1;fontSize=14;fontStyle=0;strokeWidth=2;resizeParent=0;resizeLast=1;shadow=0;dashed=0;align=center;arcSize=4;whiteSpace=wrap;html=1;" parent="1" vertex="1">
          <mxGeometry x="150" y="380" width="160" height="150" as="geometry" />
        </mxCell>
        <mxCell id="Ze1LnigZaSHVCxJpz0-y-14" value="&lt;u&gt;user_id&lt;/u&gt;&lt;br&gt;username&lt;br&gt;email&lt;br&gt;password&lt;br&gt;first_name&lt;br&gt;last_name" style="align=left;strokeColor=none;fillColor=none;spacingLeft=4;fontSize=12;verticalAlign=top;resizable=0;rotatable=0;part=1;html=1;" parent="Ze1LnigZaSHVCxJpz0-y-13" vertex="1">
          <mxGeometry y="50" width="160" height="100" as="geometry" />
        </mxCell>
        <mxCell id="Ze1LnigZaSHVCxJpz0-y-17" style="edgeStyle=orthogonalEdgeStyle;rounded=0;orthogonalLoop=1;jettySize=auto;html=1;" parent="1" edge="1">
          <mxGeometry relative="1" as="geometry">
            <mxPoint x="150" y="440" as="targetPoint" />
            <mxPoint x="150" y="620" as="sourcePoint" />
            <Array as="points">
              <mxPoint x="80" y="620" />
              <mxPoint x="80" y="440" />
            </Array>
          </mxGeometry>
        </mxCell>
        <mxCell id="Ze1LnigZaSHVCxJpz0-y-15" value="Profile" style="swimlane;childLayout=stackLayout;horizontal=1;startSize=50;horizontalStack=0;rounded=1;fontSize=14;fontStyle=0;strokeWidth=2;resizeParent=0;resizeLast=1;shadow=0;dashed=0;align=center;arcSize=4;whiteSpace=wrap;html=1;" parent="1" vertex="1">
          <mxGeometry x="150" y="570" width="160" height="130" as="geometry" />
        </mxCell>
        <mxCell id="Ze1LnigZaSHVCxJpz0-y-16" value="&lt;u&gt;user_id&lt;/u&gt;&lt;br&gt;bio&lt;br&gt;profile_picture&lt;br&gt;status&lt;br&gt;dob" style="align=left;strokeColor=none;fillColor=none;spacingLeft=4;fontSize=12;verticalAlign=top;resizable=0;rotatable=0;part=1;html=1;" parent="Ze1LnigZaSHVCxJpz0-y-15" vertex="1">
          <mxGeometry y="50" width="160" height="80" as="geometry" />
        </mxCell>
        <mxCell id="Ze1LnigZaSHVCxJpz0-y-20" style="edgeStyle=orthogonalEdgeStyle;rounded=0;orthogonalLoop=1;jettySize=auto;html=1;" parent="1" source="Ze1LnigZaSHVCxJpz0-y-18" target="Ze1LnigZaSHVCxJpz0-y-14" edge="1">
          <mxGeometry relative="1" as="geometry">
            <Array as="points">
              <mxPoint x="80" y="250" />
              <mxPoint x="80" y="440" />
            </Array>
          </mxGeometry>
        </mxCell>
        <mxCell id="Ze1LnigZaSHVCxJpz0-y-18" value="Friends" style="swimlane;childLayout=stackLayout;horizontal=1;startSize=50;horizontalStack=0;rounded=1;fontSize=14;fontStyle=0;strokeWidth=2;resizeParent=0;resizeLast=1;shadow=0;dashed=0;align=center;arcSize=4;whiteSpace=wrap;html=1;" parent="1" vertex="1">
          <mxGeometry x="150" y="190" width="160" height="130" as="geometry" />
        </mxCell>
        <mxCell id="Ze1LnigZaSHVCxJpz0-y-19" value="&lt;u&gt;friendship_id&lt;br&gt;friend_id&lt;/u&gt;&lt;br&gt;friend_name&lt;br&gt;status&lt;br&gt;profile_picture" style="align=left;strokeColor=none;fillColor=none;spacingLeft=4;fontSize=12;verticalAlign=top;resizable=0;rotatable=0;part=1;html=1;" parent="Ze1LnigZaSHVCxJpz0-y-18" vertex="1">
          <mxGeometry y="50" width="160" height="80" as="geometry" />
        </mxCell>
        <mxCell id="Ze1LnigZaSHVCxJpz0-y-23" style="edgeStyle=orthogonalEdgeStyle;rounded=0;orthogonalLoop=1;jettySize=auto;html=1;" parent="1" source="Ze1LnigZaSHVCxJpz0-y-22" target="Ze1LnigZaSHVCxJpz0-y-13" edge="1">
          <mxGeometry relative="1" as="geometry">
            <mxPoint x="380" y="290" as="sourcePoint" />
            <Array as="points">
              <mxPoint x="380" y="270" />
              <mxPoint x="380" y="340" />
              <mxPoint x="80" y="340" />
              <mxPoint x="80" y="440" />
            </Array>
          </mxGeometry>
        </mxCell>
        <mxCell id="Ze1LnigZaSHVCxJpz0-y-21" value="Chats" style="swimlane;childLayout=stackLayout;horizontal=1;startSize=50;horizontalStack=0;rounded=1;fontSize=14;fontStyle=0;strokeWidth=2;resizeParent=0;resizeLast=1;shadow=0;dashed=0;align=center;arcSize=4;whiteSpace=wrap;html=1;" parent="1" vertex="1">
          <mxGeometry x="460" y="190" width="160" height="130" as="geometry" />
        </mxCell>
        <mxCell id="Ze1LnigZaSHVCxJpz0-y-22" value="&lt;u&gt;chat_id&lt;/u&gt;&lt;br&gt;&lt;u&gt;sender_id&lt;/u&gt;&lt;br&gt;&lt;u&gt;receiver_id&lt;br&gt;&lt;/u&gt;receiver_name&lt;br&gt;conversations_id" style="align=left;strokeColor=none;fillColor=none;spacingLeft=4;fontSize=12;verticalAlign=top;resizable=0;rotatable=0;part=1;html=1;" parent="Ze1LnigZaSHVCxJpz0-y-21" vertex="1">
          <mxGeometry y="50" width="160" height="80" as="geometry" />
        </mxCell>
        <mxCell id="Ze1LnigZaSHVCxJpz0-y-24" value="Group" style="swimlane;childLayout=stackLayout;horizontal=1;startSize=50;horizontalStack=0;rounded=1;fontSize=14;fontStyle=0;strokeWidth=2;resizeParent=0;resizeLast=1;shadow=0;dashed=0;align=center;arcSize=4;whiteSpace=wrap;html=1;" parent="1" vertex="1">
          <mxGeometry x="480" y="620" width="160" height="130" as="geometry" />
        </mxCell>
        <mxCell id="Ze1LnigZaSHVCxJpz0-y-25" value="&lt;u&gt;group_id&lt;/u&gt;&lt;br&gt;&lt;u&gt;admin_id&lt;br&gt;users_id&lt;/u&gt;&lt;br&gt;description&lt;br&gt;user_count" style="align=left;strokeColor=none;fillColor=none;spacingLeft=4;fontSize=12;verticalAlign=top;resizable=0;rotatable=0;part=1;html=1;" parent="Ze1LnigZaSHVCxJpz0-y-24" vertex="1">
          <mxGeometry y="50" width="160" height="80" as="geometry" />
        </mxCell>
        <mxCell id="Ze1LnigZaSHVCxJpz0-y-26" style="edgeStyle=orthogonalEdgeStyle;rounded=0;orthogonalLoop=1;jettySize=auto;html=1;" parent="1" source="Ze1LnigZaSHVCxJpz0-y-25" edge="1">
          <mxGeometry relative="1" as="geometry">
            <mxPoint x="470" y="559.9999999999999" as="sourcePoint" />
            <mxPoint x="150" y="440" as="targetPoint" />
            <Array as="points">
              <mxPoint x="410" y="705" />
              <mxPoint x="410" y="550" />
              <mxPoint x="80" y="550" />
              <mxPoint x="80" y="440" />
              <mxPoint x="150" y="440" />
            </Array>
          </mxGeometry>
        </mxCell>
        <mxCell id="Ze1LnigZaSHVCxJpz0-y-27" value="Notifications" style="swimlane;childLayout=stackLayout;horizontal=1;startSize=50;horizontalStack=0;rounded=1;fontSize=14;fontStyle=0;strokeWidth=2;resizeParent=0;resizeLast=1;shadow=0;dashed=0;align=center;arcSize=4;whiteSpace=wrap;html=1;" parent="1" vertex="1">
          <mxGeometry x="1060" y="240" width="160" height="130" as="geometry" />
        </mxCell>
        <mxCell id="Ze1LnigZaSHVCxJpz0-y-28" value="&lt;u&gt;notification_id&lt;/u&gt;&lt;br&gt;&lt;u&gt;sender_id&lt;/u&gt;&lt;br&gt;&lt;u&gt;receiver_id&lt;/u&gt;&lt;br&gt;content&lt;br&gt;timestamp" style="align=left;strokeColor=none;fillColor=none;spacingLeft=4;fontSize=12;verticalAlign=top;resizable=0;rotatable=0;part=1;html=1;" parent="Ze1LnigZaSHVCxJpz0-y-27" vertex="1">
          <mxGeometry y="50" width="160" height="80" as="geometry" />
        </mxCell>
        <mxCell id="Ze1LnigZaSHVCxJpz0-y-29" value="Message" style="swimlane;childLayout=stackLayout;horizontal=1;startSize=50;horizontalStack=0;rounded=1;fontSize=14;fontStyle=0;strokeWidth=2;resizeParent=0;resizeLast=1;shadow=0;dashed=0;align=center;arcSize=4;whiteSpace=wrap;html=1;" parent="1" vertex="1">
          <mxGeometry x="770" y="410" width="160" height="150" as="geometry" />
        </mxCell>
        <mxCell id="Ze1LnigZaSHVCxJpz0-y-30" value="&lt;u&gt;message_id&lt;/u&gt;&lt;br&gt;&lt;u&gt;sender_id&lt;br&gt;receiver_id&lt;/u&gt;&lt;br&gt;metadata&lt;br&gt;content&lt;br&gt;timestamp" style="align=left;strokeColor=none;fillColor=none;spacingLeft=4;fontSize=12;verticalAlign=top;resizable=0;rotatable=0;part=1;html=1;" parent="Ze1LnigZaSHVCxJpz0-y-29" vertex="1">
          <mxGeometry y="50" width="160" height="100" as="geometry" />
        </mxCell>
        <mxCell id="Ze1LnigZaSHVCxJpz0-y-31" value="Attachment" style="swimlane;childLayout=stackLayout;horizontal=1;startSize=50;horizontalStack=0;rounded=1;fontSize=14;fontStyle=0;strokeWidth=2;resizeParent=0;resizeLast=1;shadow=0;dashed=0;align=center;arcSize=4;whiteSpace=wrap;html=1;" parent="1" vertex="1">
          <mxGeometry x="1050" y="560" width="150" height="140" as="geometry" />
        </mxCell>
        <mxCell id="Ze1LnigZaSHVCxJpz0-y-32" value="&lt;u&gt;message_id&lt;/u&gt;&lt;br&gt;document&lt;br&gt;video&lt;br&gt;photo&lt;br&gt;contact" style="align=left;strokeColor=none;fillColor=none;spacingLeft=4;fontSize=12;verticalAlign=top;resizable=0;rotatable=0;part=1;html=1;" parent="Ze1LnigZaSHVCxJpz0-y-31" vertex="1">
          <mxGeometry y="50" width="150" height="90" as="geometry" />
        </mxCell>
        <mxCell id="Ze1LnigZaSHVCxJpz0-y-40" value="" style="edgeStyle=segmentEdgeStyle;endArrow=classic;html=1;curved=0;rounded=0;endSize=8;startSize=8;" parent="1" source="Ze1LnigZaSHVCxJpz0-y-30" target="Ze1LnigZaSHVCxJpz0-y-25" edge="1">
          <mxGeometry width="50" height="50" relative="1" as="geometry">
            <mxPoint x="400" y="500" as="sourcePoint" />
            <mxPoint x="450" y="450" as="targetPoint" />
            <Array as="points">
              <mxPoint x="450" y="470" />
              <mxPoint x="450" y="680" />
            </Array>
          </mxGeometry>
        </mxCell>
        <mxCell id="Ze1LnigZaSHVCxJpz0-y-41" value="" style="edgeStyle=segmentEdgeStyle;endArrow=classic;html=1;curved=0;rounded=0;endSize=8;startSize=8;" parent="1" source="Ze1LnigZaSHVCxJpz0-y-30" target="Ze1LnigZaSHVCxJpz0-y-22" edge="1">
          <mxGeometry width="50" height="50" relative="1" as="geometry">
            <mxPoint x="780" y="480" as="sourcePoint" />
            <mxPoint x="540" y="520" as="targetPoint" />
            <Array as="points">
              <mxPoint x="650" y="470" />
              <mxPoint x="650" y="140" />
              <mxPoint x="420" y="140" />
              <mxPoint x="420" y="250" />
            </Array>
          </mxGeometry>
        </mxCell>
        <mxCell id="Ze1LnigZaSHVCxJpz0-y-42" value="" style="edgeStyle=segmentEdgeStyle;endArrow=classic;html=1;curved=0;rounded=0;endSize=8;startSize=8;" parent="1" source="Ze1LnigZaSHVCxJpz0-y-32" target="Ze1LnigZaSHVCxJpz0-y-30" edge="1">
          <mxGeometry width="50" height="50" relative="1" as="geometry">
            <mxPoint x="780" y="480" as="sourcePoint" />
            <mxPoint x="490" y="690" as="targetPoint" />
            <Array as="points">
              <mxPoint x="650" y="620" />
              <mxPoint x="650" y="480" />
            </Array>
          </mxGeometry>
        </mxCell>
        <mxCell id="Ze1LnigZaSHVCxJpz0-y-43" value="" style="edgeStyle=segmentEdgeStyle;endArrow=classic;html=1;curved=0;rounded=0;endSize=8;startSize=8;" parent="1" source="Ze1LnigZaSHVCxJpz0-y-28" target="Ze1LnigZaSHVCxJpz0-y-30" edge="1">
          <mxGeometry width="50" height="50" relative="1" as="geometry">
            <mxPoint x="1060" y="630" as="sourcePoint" />
            <mxPoint x="780" y="480" as="targetPoint" />
            <Array as="points">
              <mxPoint x="680" y="320" />
              <mxPoint x="680" y="490" />
            </Array>
          </mxGeometry>
        </mxCell>
        <mxCell id="Ze1LnigZaSHVCxJpz0-y-44" value="" style="edgeStyle=segmentEdgeStyle;endArrow=classic;html=1;curved=0;rounded=0;endSize=8;startSize=8;" parent="1" edge="1">
          <mxGeometry width="50" height="50" relative="1" as="geometry">
            <mxPoint x="1060" y="330" as="sourcePoint" />
            <mxPoint x="770" y="490" as="targetPoint" />
            <Array as="points">
              <mxPoint x="720" y="330" />
              <mxPoint x="720" y="490" />
            </Array>
          </mxGeometry>
        </mxCell>
      </root>
    </mxGraphModel>
  </diagram>
</mxfile>
